<svg xmlns="http://www.w3.org/2000/svg" width="120" height="120" viewBox="0 0 120 120">
  <circle cx="60" cy="60" r="56" fill="#111111"/>
  <path d="M78.5 42.6c6.4 4.6 12.2 5.7 17 5.8v16c-7.8-.2-14.4-2.3-19.9-6.2v28.2c0 15.8-12.8 28.6-28.6 28.6S18.4 102.2 18.4 86.4s12.8-28.6 28.6-28.6c2.1 0 4.2.2 6.2.7v16.8c-1.9-.9-4-1.3-6.2-1.3-6.8 0-12.4 5.6-12.4 12.4s5.6 12.4 12.4 12.4 12.4-5.6 12.4-12.4V24.4h16.1c.6 7.4 1.8 13.1 3 18.2z" fill="#25F4EE"/>
  <path d="M83.2 38.2c5.1 6.4 11 9.2 17.4 9.5v16c-7.8-.2-14.4-2.3-19.9-6.2v28.2c0 15.8-12.8 28.6-28.6 28.6-8.4 0-16-3.6-21.2-9.4 4.8 3.7 10.8 5.9 17.3 5.9 15.8 0 28.6-12.8 28.6-28.6V54c5.5 3.9 12.1 6 19.9 6.2v-9.7c-5.2-.7-9.8-2.5-13.5-5.3v-7z" fill="#FE2C55"/>
  <path d="M73.6 24.4c.4 5.3 1.2 9.8 2.1 13.7 1.3 5.1 4 9.5 8.1 13.1 3.7 2.8 8.3 4.6 13.5 5.3v7.2c-7.8-.2-14.4-2.3-19.9-6.2v28.2c0 15.8-12.8 28.6-28.6 28.6-6.5 0-12.5-2.2-17.3-5.9-4.7-5.1-7.6-11.9-7.6-19.4 0-15.8 12.8-28.6 28.6-28.6 2.1 0 4.2.2 6.2.7v14.2c-1.9-.9-4-1.3-6.2-1.3-6.8 0-12.4 5.6-12.4 12.4s5.6 12.4 12.4 12.4 12.4-5.6 12.4-12.4v-62h8.7z" fill="#FFFFFF"/>
</svg>